<mxfile host="Electron" agent="Mozilla/5.0 (Windows NT 10.0; Win64; x64) AppleWebKit/537.36 (KHTML, like Gecko) draw.io/26.0.16 Chrome/132.0.6834.196 Electron/34.2.0 Safari/537.36" version="26.0.16">
  <diagram name="第 1 页" id="TdySBLj2dLT2NIS52ZgB">
    <mxGraphModel dx="1781" dy="717" grid="1" gridSize="10" guides="1" tooltips="1" connect="1" arrows="1" fold="1" page="1" pageScale="1" pageWidth="827" pageHeight="1169" math="0" shadow="0">
      <root>
        <mxCell id="0" />
        <mxCell id="1" parent="0" />
        <mxCell id="_XnYrWNxWNGf0YTD7Psm-3" value="" style="edgeStyle=orthogonalEdgeStyle;rounded=0;orthogonalLoop=1;jettySize=auto;html=1;" edge="1" parent="1" source="_XnYrWNxWNGf0YTD7Psm-1" target="_XnYrWNxWNGf0YTD7Psm-2">
          <mxGeometry relative="1" as="geometry" />
        </mxCell>
        <mxCell id="_XnYrWNxWNGf0YTD7Psm-13" value="" style="edgeStyle=orthogonalEdgeStyle;rounded=0;orthogonalLoop=1;jettySize=auto;html=1;" edge="1" parent="1" source="_XnYrWNxWNGf0YTD7Psm-1" target="_XnYrWNxWNGf0YTD7Psm-12">
          <mxGeometry relative="1" as="geometry" />
        </mxCell>
        <mxCell id="_XnYrWNxWNGf0YTD7Psm-15" value="" style="edgeStyle=orthogonalEdgeStyle;rounded=0;orthogonalLoop=1;jettySize=auto;html=1;" edge="1" parent="1" source="_XnYrWNxWNGf0YTD7Psm-1" target="_XnYrWNxWNGf0YTD7Psm-14">
          <mxGeometry relative="1" as="geometry" />
        </mxCell>
        <mxCell id="_XnYrWNxWNGf0YTD7Psm-1" value="CPU飙升100%" style="rounded=0;whiteSpace=wrap;html=1;fillColor=#ffcc99;strokeColor=#36393d;" vertex="1" parent="1">
          <mxGeometry x="320" y="260" width="120" height="60" as="geometry" />
        </mxCell>
        <mxCell id="_XnYrWNxWNGf0YTD7Psm-7" value="" style="edgeStyle=orthogonalEdgeStyle;rounded=0;orthogonalLoop=1;jettySize=auto;html=1;entryX=0;entryY=0.5;entryDx=0;entryDy=0;" edge="1" parent="1" source="_XnYrWNxWNGf0YTD7Psm-2" target="_XnYrWNxWNGf0YTD7Psm-5">
          <mxGeometry relative="1" as="geometry" />
        </mxCell>
        <mxCell id="_XnYrWNxWNGf0YTD7Psm-10" style="edgeStyle=orthogonalEdgeStyle;rounded=0;orthogonalLoop=1;jettySize=auto;html=1;exitX=1;exitY=0.5;exitDx=0;exitDy=0;entryX=0;entryY=0.5;entryDx=0;entryDy=0;" edge="1" parent="1" source="_XnYrWNxWNGf0YTD7Psm-2" target="_XnYrWNxWNGf0YTD7Psm-8">
          <mxGeometry relative="1" as="geometry" />
        </mxCell>
        <mxCell id="_XnYrWNxWNGf0YTD7Psm-11" style="edgeStyle=orthogonalEdgeStyle;rounded=0;orthogonalLoop=1;jettySize=auto;html=1;exitX=1;exitY=0.5;exitDx=0;exitDy=0;entryX=0;entryY=0.5;entryDx=0;entryDy=0;" edge="1" parent="1" source="_XnYrWNxWNGf0YTD7Psm-2" target="_XnYrWNxWNGf0YTD7Psm-9">
          <mxGeometry relative="1" as="geometry" />
        </mxCell>
        <mxCell id="_XnYrWNxWNGf0YTD7Psm-2" value="内存类问题" style="rounded=0;whiteSpace=wrap;html=1;fillColor=#ffff88;strokeColor=#36393d;" vertex="1" parent="1">
          <mxGeometry x="520" y="260" width="120" height="60" as="geometry" />
        </mxCell>
        <mxCell id="_XnYrWNxWNGf0YTD7Psm-5" value="内存不足" style="whiteSpace=wrap;html=1;rounded=0;fillColor=#cdeb8b;strokeColor=#36393d;" vertex="1" parent="1">
          <mxGeometry x="720" y="182" width="120" height="60" as="geometry" />
        </mxCell>
        <mxCell id="_XnYrWNxWNGf0YTD7Psm-8" value="频繁GC" style="whiteSpace=wrap;html=1;rounded=0;fillColor=#cdeb8b;strokeColor=#36393d;" vertex="1" parent="1">
          <mxGeometry x="720" y="260" width="120" height="60" as="geometry" />
        </mxCell>
        <mxCell id="_XnYrWNxWNGf0YTD7Psm-9" value="内存泄漏" style="whiteSpace=wrap;html=1;rounded=0;fillColor=#cdeb8b;strokeColor=#36393d;" vertex="1" parent="1">
          <mxGeometry x="720" y="340" width="120" height="60" as="geometry" />
        </mxCell>
        <mxCell id="_XnYrWNxWNGf0YTD7Psm-17" value="" style="edgeStyle=orthogonalEdgeStyle;rounded=0;orthogonalLoop=1;jettySize=auto;html=1;entryX=1;entryY=0.5;entryDx=0;entryDy=0;exitX=0.5;exitY=1;exitDx=0;exitDy=0;" edge="1" parent="1" source="_XnYrWNxWNGf0YTD7Psm-12" target="_XnYrWNxWNGf0YTD7Psm-16">
          <mxGeometry relative="1" as="geometry" />
        </mxCell>
        <mxCell id="_XnYrWNxWNGf0YTD7Psm-29" style="edgeStyle=orthogonalEdgeStyle;rounded=0;orthogonalLoop=1;jettySize=auto;html=1;exitX=0.5;exitY=1;exitDx=0;exitDy=0;entryX=1;entryY=0.5;entryDx=0;entryDy=0;" edge="1" parent="1" source="_XnYrWNxWNGf0YTD7Psm-12" target="_XnYrWNxWNGf0YTD7Psm-28">
          <mxGeometry relative="1" as="geometry" />
        </mxCell>
        <mxCell id="_XnYrWNxWNGf0YTD7Psm-30" style="edgeStyle=orthogonalEdgeStyle;rounded=0;orthogonalLoop=1;jettySize=auto;html=1;exitX=0.5;exitY=1;exitDx=0;exitDy=0;entryX=1;entryY=0.5;entryDx=0;entryDy=0;" edge="1" parent="1" source="_XnYrWNxWNGf0YTD7Psm-12" target="_XnYrWNxWNGf0YTD7Psm-27">
          <mxGeometry relative="1" as="geometry" />
        </mxCell>
        <mxCell id="_XnYrWNxWNGf0YTD7Psm-12" value="并发类问题" style="whiteSpace=wrap;html=1;fillColor=#ffff88;strokeColor=#36393d;rounded=0;" vertex="1" parent="1">
          <mxGeometry x="320" y="400" width="120" height="60" as="geometry" />
        </mxCell>
        <mxCell id="_XnYrWNxWNGf0YTD7Psm-20" value="" style="edgeStyle=orthogonalEdgeStyle;rounded=0;orthogonalLoop=1;jettySize=auto;html=1;" edge="1" parent="1" source="_XnYrWNxWNGf0YTD7Psm-14" target="_XnYrWNxWNGf0YTD7Psm-19">
          <mxGeometry relative="1" as="geometry" />
        </mxCell>
        <mxCell id="_XnYrWNxWNGf0YTD7Psm-21" value="" style="edgeStyle=orthogonalEdgeStyle;rounded=0;orthogonalLoop=1;jettySize=auto;html=1;" edge="1" parent="1" source="_XnYrWNxWNGf0YTD7Psm-14" target="_XnYrWNxWNGf0YTD7Psm-19">
          <mxGeometry relative="1" as="geometry" />
        </mxCell>
        <mxCell id="_XnYrWNxWNGf0YTD7Psm-22" value="" style="edgeStyle=orthogonalEdgeStyle;rounded=0;orthogonalLoop=1;jettySize=auto;html=1;" edge="1" parent="1" source="_XnYrWNxWNGf0YTD7Psm-14" target="_XnYrWNxWNGf0YTD7Psm-19">
          <mxGeometry relative="1" as="geometry" />
        </mxCell>
        <mxCell id="_XnYrWNxWNGf0YTD7Psm-25" style="edgeStyle=orthogonalEdgeStyle;rounded=0;orthogonalLoop=1;jettySize=auto;html=1;exitX=0;exitY=0.5;exitDx=0;exitDy=0;entryX=1;entryY=0.5;entryDx=0;entryDy=0;" edge="1" parent="1" source="_XnYrWNxWNGf0YTD7Psm-14" target="_XnYrWNxWNGf0YTD7Psm-23">
          <mxGeometry relative="1" as="geometry" />
        </mxCell>
        <mxCell id="_XnYrWNxWNGf0YTD7Psm-26" style="edgeStyle=orthogonalEdgeStyle;rounded=0;orthogonalLoop=1;jettySize=auto;html=1;exitX=0;exitY=0.5;exitDx=0;exitDy=0;entryX=1;entryY=0.5;entryDx=0;entryDy=0;" edge="1" parent="1" source="_XnYrWNxWNGf0YTD7Psm-14" target="_XnYrWNxWNGf0YTD7Psm-24">
          <mxGeometry relative="1" as="geometry" />
        </mxCell>
        <mxCell id="_XnYrWNxWNGf0YTD7Psm-14" value="业务类问题" style="whiteSpace=wrap;html=1;fillColor=#ffff88;strokeColor=#36393d;rounded=0;" vertex="1" parent="1">
          <mxGeometry x="120" y="260" width="120" height="60" as="geometry" />
        </mxCell>
        <mxCell id="_XnYrWNxWNGf0YTD7Psm-16" value="大量计算密集型的任务" style="whiteSpace=wrap;html=1;fillColor=#cdeb8b;strokeColor=#36393d;rounded=0;" vertex="1" parent="1">
          <mxGeometry x="197" y="521" width="120" height="60" as="geometry" />
        </mxCell>
        <mxCell id="_XnYrWNxWNGf0YTD7Psm-19" value="死循环" style="whiteSpace=wrap;html=1;fillColor=#cdeb8b;strokeColor=#36393d;rounded=0;" vertex="1" parent="1">
          <mxGeometry x="-80" y="260" width="120" height="60" as="geometry" />
        </mxCell>
        <mxCell id="_XnYrWNxWNGf0YTD7Psm-23" value="死锁" style="whiteSpace=wrap;html=1;fillColor=#cdeb8b;strokeColor=#36393d;rounded=0;" vertex="1" parent="1">
          <mxGeometry x="-80" y="340" width="120" height="60" as="geometry" />
        </mxCell>
        <mxCell id="_XnYrWNxWNGf0YTD7Psm-24" value="不必要的代码块" style="whiteSpace=wrap;html=1;fillColor=#cdeb8b;strokeColor=#36393d;rounded=0;" vertex="1" parent="1">
          <mxGeometry x="-80" y="420" width="120" height="60" as="geometry" />
        </mxCell>
        <mxCell id="_XnYrWNxWNGf0YTD7Psm-27" value="大量的上下文切换" style="whiteSpace=wrap;html=1;fillColor=#cdeb8b;strokeColor=#36393d;rounded=0;" vertex="1" parent="1">
          <mxGeometry x="197" y="684" width="120" height="60" as="geometry" />
        </mxCell>
        <mxCell id="_XnYrWNxWNGf0YTD7Psm-28" value="大量并发线程" style="whiteSpace=wrap;html=1;fillColor=#cdeb8b;strokeColor=#36393d;rounded=0;" vertex="1" parent="1">
          <mxGeometry x="197" y="604" width="120" height="60" as="geometry" />
        </mxCell>
        <mxCell id="_XnYrWNxWNGf0YTD7Psm-33" value="" style="edgeStyle=orthogonalEdgeStyle;rounded=0;orthogonalLoop=1;jettySize=auto;html=1;" edge="1" parent="1" source="_XnYrWNxWNGf0YTD7Psm-31" target="_XnYrWNxWNGf0YTD7Psm-32">
          <mxGeometry relative="1" as="geometry" />
        </mxCell>
        <mxCell id="_XnYrWNxWNGf0YTD7Psm-34" value="" style="edgeStyle=orthogonalEdgeStyle;rounded=0;orthogonalLoop=1;jettySize=auto;html=1;" edge="1" parent="1" source="_XnYrWNxWNGf0YTD7Psm-31" target="_XnYrWNxWNGf0YTD7Psm-32">
          <mxGeometry relative="1" as="geometry" />
        </mxCell>
        <mxCell id="_XnYrWNxWNGf0YTD7Psm-36" style="edgeStyle=orthogonalEdgeStyle;rounded=0;orthogonalLoop=1;jettySize=auto;html=1;exitX=0.5;exitY=1;exitDx=0;exitDy=0;entryX=0.5;entryY=0;entryDx=0;entryDy=0;" edge="1" parent="1" source="_XnYrWNxWNGf0YTD7Psm-31" target="_XnYrWNxWNGf0YTD7Psm-35">
          <mxGeometry relative="1" as="geometry" />
        </mxCell>
        <mxCell id="_XnYrWNxWNGf0YTD7Psm-31" value="CPU飙升100%定位的两大神器" style="rounded=0;whiteSpace=wrap;html=1;fillColor=#ffcc99;strokeColor=#36393d;" vertex="1" parent="1">
          <mxGeometry x="518" y="870" width="120" height="60" as="geometry" />
        </mxCell>
        <mxCell id="_XnYrWNxWNGf0YTD7Psm-32" value="jstack" style="whiteSpace=wrap;html=1;rounded=0;fillColor=#cdeb8b;strokeColor=#36393d;" vertex="1" parent="1">
          <mxGeometry x="437" y="1010" width="120" height="60" as="geometry" />
        </mxCell>
        <mxCell id="_XnYrWNxWNGf0YTD7Psm-35" value="arthas" style="whiteSpace=wrap;html=1;rounded=0;fillColor=#cdeb8b;strokeColor=#36393d;" vertex="1" parent="1">
          <mxGeometry x="600" y="1010" width="120" height="60" as="geometry" />
        </mxCell>
        <mxCell id="_XnYrWNxWNGf0YTD7Psm-38" style="edgeStyle=orthogonalEdgeStyle;rounded=0;orthogonalLoop=1;jettySize=auto;html=1;exitX=0;exitY=0.5;exitDx=0;exitDy=0;" edge="1" parent="1" source="_XnYrWNxWNGf0YTD7Psm-37">
          <mxGeometry relative="1" as="geometry">
            <mxPoint x="721" y="1040" as="targetPoint" />
          </mxGeometry>
        </mxCell>
        <mxCell id="_XnYrWNxWNGf0YTD7Psm-37" value="推荐" style="ellipse;whiteSpace=wrap;html=1;fillColor=#ffff88;strokeColor=#36393d;" vertex="1" parent="1">
          <mxGeometry x="791" y="1005" width="120" height="70" as="geometry" />
        </mxCell>
        <mxCell id="_XnYrWNxWNGf0YTD7Psm-41" value="" style="edgeStyle=orthogonalEdgeStyle;rounded=0;orthogonalLoop=1;jettySize=auto;html=1;entryX=0.006;entryY=0.617;entryDx=0;entryDy=0;entryPerimeter=0;" edge="1" parent="1" source="_XnYrWNxWNGf0YTD7Psm-39" target="_XnYrWNxWNGf0YTD7Psm-40">
          <mxGeometry relative="1" as="geometry" />
        </mxCell>
        <mxCell id="_XnYrWNxWNGf0YTD7Psm-44" style="edgeStyle=orthogonalEdgeStyle;rounded=0;orthogonalLoop=1;jettySize=auto;html=1;exitX=1;exitY=0.5;exitDx=0;exitDy=0;entryX=0;entryY=0.5;entryDx=0;entryDy=0;" edge="1" parent="1" source="_XnYrWNxWNGf0YTD7Psm-39" target="_XnYrWNxWNGf0YTD7Psm-42">
          <mxGeometry relative="1" as="geometry" />
        </mxCell>
        <mxCell id="_XnYrWNxWNGf0YTD7Psm-45" style="edgeStyle=orthogonalEdgeStyle;rounded=0;orthogonalLoop=1;jettySize=auto;html=1;exitX=1;exitY=0.5;exitDx=0;exitDy=0;entryX=0;entryY=0.5;entryDx=0;entryDy=0;" edge="1" parent="1" source="_XnYrWNxWNGf0YTD7Psm-39" target="_XnYrWNxWNGf0YTD7Psm-43">
          <mxGeometry relative="1" as="geometry" />
        </mxCell>
        <mxCell id="_XnYrWNxWNGf0YTD7Psm-39" value="CPU飙升100%的解决方法论" style="rounded=0;whiteSpace=wrap;html=1;fillColor=#ffcc99;strokeColor=#36393d;" vertex="1" parent="1">
          <mxGeometry x="73" y="1264" width="120" height="60" as="geometry" />
        </mxCell>
        <mxCell id="_XnYrWNxWNGf0YTD7Psm-40" value="step1：查看占用cpu最高的TOP N线程" style="whiteSpace=wrap;html=1;rounded=0;fillColor=#cdeb8b;strokeColor=#36393d;" vertex="1" parent="1">
          <mxGeometry x="280" y="1184" width="120" height="60" as="geometry" />
        </mxCell>
        <mxCell id="_XnYrWNxWNGf0YTD7Psm-42" value="step2：查看TOP N线程堆栈信息" style="whiteSpace=wrap;html=1;rounded=0;fillColor=#cdeb8b;strokeColor=#36393d;" vertex="1" parent="1">
          <mxGeometry x="280" y="1264" width="120" height="60" as="geometry" />
        </mxCell>
        <mxCell id="_XnYrWNxWNGf0YTD7Psm-43" value="step3：根据代码针对性解决问题" style="whiteSpace=wrap;html=1;rounded=0;fillColor=#cdeb8b;strokeColor=#36393d;" vertex="1" parent="1">
          <mxGeometry x="280" y="1344" width="120" height="60" as="geometry" />
        </mxCell>
        <mxCell id="_XnYrWNxWNGf0YTD7Psm-46" value="top -Hp 26964" style="rounded=0;whiteSpace=wrap;html=1;" vertex="1" parent="1">
          <mxGeometry x="450" y="1184" width="120" height="60" as="geometry" />
        </mxCell>
        <mxCell id="_XnYrWNxWNGf0YTD7Psm-47" value="jstack -l 26964" style="rounded=0;whiteSpace=wrap;html=1;" vertex="1" parent="1">
          <mxGeometry x="450" y="1264" width="120" height="60" as="geometry" />
        </mxCell>
        <mxCell id="_XnYrWNxWNGf0YTD7Psm-48" value="jstack" style="rounded=0;whiteSpace=wrap;html=1;" vertex="1" parent="1">
          <mxGeometry x="450" y="1100" width="120" height="60" as="geometry" />
        </mxCell>
        <mxCell id="_XnYrWNxWNGf0YTD7Psm-49" value="dashboard" style="rounded=0;whiteSpace=wrap;html=1;" vertex="1" parent="1">
          <mxGeometry x="590" y="1184" width="120" height="60" as="geometry" />
        </mxCell>
        <mxCell id="_XnYrWNxWNGf0YTD7Psm-50" value="thread -n 3" style="rounded=0;whiteSpace=wrap;html=1;" vertex="1" parent="1">
          <mxGeometry x="590" y="1264" width="120" height="60" as="geometry" />
        </mxCell>
        <mxCell id="_XnYrWNxWNGf0YTD7Psm-51" value="arthas" style="rounded=0;whiteSpace=wrap;html=1;" vertex="1" parent="1">
          <mxGeometry x="590" y="1100" width="120" height="60" as="geometry" />
        </mxCell>
      </root>
    </mxGraphModel>
  </diagram>
</mxfile>
